<svg version="1.1" class="svg-icon nav-icon nav-icon-1" xmlns="http://www.w3.org/2000/svg" x="0px" y="0px"
	 viewBox="0 0 488.9 488.9" style="enable-background:new 0 0 488.9 488.9;" xml:space="preserve">
	<path class="st0" d="M484.3,401.6l-115.8-54c-0.2-0.2-0.4-0.3-0.5-0.5c-0.2-0.2-0.4-0.4-0.6-0.5c-0.1-0.1-0.3-0.3-0.4-0.4
		c-0.3-0.2-0.6-0.3-0.8-0.4c-0.2-0.1-0.3-0.2-0.4-0.3l-57.4-24.6L217,281.8l25.2-8.4l61.2,25.3h0l168,69.5c1,0.4,2,0.6,3.1,0.6
		c1.6,0,3.1-0.5,4.4-1.3c2.2-1.5,3.6-4,3.6-6.7v-256c0-3.2-2-6.2-4.9-7.4l-64-26.5h0l-168-69.5c-0.6-0.2-1.2-0.4-1.8-0.5
		c0,0,0,0,0,0c-1.2-0.2-2.4-0.1-3.6,0.3c0,0-0.1,0-0.2,0L0,81.2l5.1,15.2l229.5-76.5V259l-32,10.7v-68.9c0-2.5-1.2-4.9-3.2-6.4
		c-2-1.5-4.7-2-7.1-1.2l-184,56c-3.4,1-5.7,4.1-5.7,7.7v80v48c0,3.1,1.8,5.9,4.5,7.2l85.1,40.7l-37,16.8c-2.8,1.3-4.7,4.1-4.7,7.2
		s1.8,6,4.6,7.3l48,22.8l6.8-14.5L77.5,457l33.5-15.2l80.1,38.3c0.2,0.1,0.5,0.2,0.7,0.2c0.3,0.1,0.5,0.2,0.8,0.3
		c0.5,0.1,0.9,0.2,1.4,0.2c0.2,0,0.4,0.1,0.6,0.1c0.1,0,0.1,0,0.2,0c0.5,0,1-0.1,1.5-0.2c0.2,0,0.4-0.1,0.6-0.1
		c0.2-0.1,0.4-0.2,0.6-0.2c0.1,0,0.2,0,0.2,0l168-72c3-1.2,4.9-4.1,4.9-7.3v-34.7l91.3,42.6l-142.6,64.8l6.6,14.6l158.4-72
		c2.8-1.3,4.7-4.1,4.7-7.2S487.1,402.9,484.3,401.6z M82.5,306.5l-32,9.7v-21.7l32-10.7V306.5z M162.5,282.2l-13.3,4.1l-18.7,5.7
		v-21.4l32-10.7V282.2z M44.8,334.7C44.9,334.7,44.9,334.7,44.8,334.7l48-14.6l0,0l20.4-6.2l11.6-3.5h0l48-14.6l0,0l21.2-6.5l91,39
		l-142.9,62.6L32.5,338.5L44.8,334.7z M194.7,416l-33.5-16l144-63l37,15.9L194.7,416z M466.5,110.2v238.7l-48-19.9v-40.2v-80v-32
		V90.3L466.5,110.2z M362.5,266.6l-16,4v-63.5l16-4V266.6z M314.5,215.1l16-4v63.5l-16,4V215.1z M378.5,204.6l12,4.8l12,4.8V277
		l-24-9.6V204.6z M402.5,197l-12-4.8l-12-4.8v-14.8l24,9.6V197z M362.5,186.6l-48,12v-15.5l48-12V186.6z M370,281.2l32.6,13v28.1
		l-74.3-30.7L370,281.2z M402.5,165l-24-9.6v-26.6h-16v25.8l-48,12V47.3l88,36.4V165z M298.5,40.6v136.2v32v70.5l-48-19.9V20.8
		L298.5,40.6z M18.5,262.7l168-51.1v63.3l-8,2.4v-28.5c0-2.6-1.2-5-3.3-6.5c-2.1-1.5-4.8-1.9-7.2-1.1l-48,16
		c-3.3,1.1-5.5,4.1-5.5,7.6v32l-16,4.9v-28.9c0-2.6-1.2-5-3.3-6.5c-2.1-1.5-4.8-1.9-7.2-1.1l-48,16c-3.3,1.1-5.5,4.1-5.5,7.6v32.3
		l-16,4.9V262.7z M18.5,349.5l168,80.3v30.3l-72-34.4h0l-96-45.9C18.5,379.8,18.5,349.5,18.5,349.5z M354.5,395.5l-152,65.1v-30.6
		l152-65.1V395.5z"/>
	<path class="st0" d="M26.5,224.8c0.8,0,1.7-0.1,2.5-0.4l144-48c3.3-1.1,5.5-4.1,5.5-7.6v-96c0-2.6-1.2-5-3.3-6.5
		c-2.1-1.5-4.8-1.9-7.2-1.1l-144,48c-3.3,1.1-5.5,4.1-5.5,7.6v96c0,2.6,1.2,5,3.3,6.5C23.2,224.3,24.9,224.8,26.5,224.8z
		 M34.5,126.6l128-42.7v79.1l-128,42.7V126.6z"/>
	<path class="st0" d="M104.4,143.7l-19.3-6.4c-2.3-0.8-4.9-0.4-7,0.9l-24,16l8.9,13.3l20.7-13.8l20.3,6.8c2.9,1,6,0.2,8.2-1.9l32-32
		l-11.3-11.3L104.4,143.7z"/>
</svg>
