<svg version="1.1" class="svg-icon nav-icon nav-icon-2" xmlns="http://www.w3.org/2000/svg" x="0px" y="0px"
	 viewBox="0 0 512 512" style="enable-background:new 0 0 512 512;" xml:space="preserve">
<path class="st0" d="M20.8,314.4c-3.8,0-6.9-3.1-6.9-6.9v-20.3c0-3.8,3.1-6.9,6.9-6.9s6.9,3.1,6.9,6.9v20.3
	C27.7,311.3,24.6,314.4,20.8,314.4z"/>
<path class="st0" d="M20.8,176.8c-3.8,0-6.9-3.1-6.9-6.9v-52.3c0-15.3,12.4-27.7,27.7-27.7h27.7c3.8,0,6.9,3.1,6.9,6.9
	c0,3.8-3.1,6.9-6.9,6.9H41.5c-7.6,0-13.8,6.2-13.8,13.8v52.3C27.7,173.7,24.6,176.8,20.8,176.8z"/>
<path class="st0" d="M20.8,245.6c-3.8,0-6.9-3.1-6.9-6.9v-20.3c0-3.8,3.1-6.9,6.9-6.9s6.9,3.1,6.9,6.9v20.3
	C27.7,242.5,24.6,245.6,20.8,245.6z"/>
<path class="st0" d="M69.2,422.1H41.5c-15.3,0-27.7-12.4-27.7-27.7v-38.5c0-3.8,3.1-6.9,6.9-6.9s6.9,3.1,6.9,6.9v38.5
	c0,7.6,6.2,13.8,13.8,13.8h27.7c3.8,0,6.9,3.1,6.9,6.9C76.1,419,73,422.1,69.2,422.1z"/>
<path class="st0" d="M470.5,422.1H193.7c-3.8,0-6.9-3.1-6.9-6.9c0-3.8,3.1-6.9,6.9-6.9h276.8c7.6,0,13.8-6.2,13.8-13.8V117.6
	c0-7.6-6.2-13.8-13.8-13.8H193.7c-3.8,0-6.9-3.1-6.9-6.9c0-3.8,3.1-6.9,6.9-6.9h276.8c15.3,0,27.7,12.4,27.7,27.7v276.8
	C498.2,409.7,485.8,422.1,470.5,422.1z"/>
<path class="st0" d="M179.9,443.2H83c-11.5,0-20.8-9.3-20.8-20.8v-333c0-11.5,9.3-20.8,20.8-20.8h96.9c11.5,0,20.8,9.3,20.8,20.8
	v333C200.6,433.9,191.4,443.2,179.9,443.2z M83,82.6c-3.8,0-6.9,3.1-6.9,6.9v333c0,3.8,3.1,6.9,6.9,6.9h96.9c3.8,0,6.9-3.1,6.9-6.9
	v-333c0-3.8-3.1-6.9-6.9-6.9H83z"/>
<path class="st0" d="M440.2,214.5H244.8c-3.8,0-6.9-3.1-6.9-6.9v-62.3c0-3.8,3.1-6.9,6.9-6.9h195.5c3.8,0,6.9,3.1,6.9,6.9v62.3
	C447.1,211.4,444,214.5,440.2,214.5z M251.7,200.6h181.6v-48.4H251.7V200.6z"/>
<path class="st0" d="M429,265.2h-24.2c-3.8,0-6.9-3.1-6.9-6.9c0-3.8,3.1-6.9,6.9-6.9H429c3.8,0,6.9,3.1,6.9,6.9
	C435.9,262.1,432.8,265.2,429,265.2z"/>
<path class="st0" d="M354.6,265.2h-24.2c-3.8,0-6.9-3.1-6.9-6.9c0-3.8,3.1-6.9,6.9-6.9h24.2c3.8,0,6.9,3.1,6.9,6.9
	C361.5,262.1,358.4,265.2,354.6,265.2z"/>
<path class="st0" d="M280.2,265.2H256c-3.8,0-6.9-3.1-6.9-6.9c0-3.8,3.1-6.9,6.9-6.9h24.2c3.8,0,6.9,3.1,6.9,6.9
	C287.1,262.1,284,265.2,280.2,265.2z"/>
<path class="st0" d="M429,319.4h-24.2c-3.8,0-6.9-3.1-6.9-6.9c0-3.8,3.1-6.9,6.9-6.9H429c3.8,0,6.9,3.1,6.9,6.9
	C435.9,316.3,432.8,319.4,429,319.4z"/>
<path class="st0" d="M354.6,319.4h-24.2c-3.8,0-6.9-3.1-6.9-6.9c0-3.8,3.1-6.9,6.9-6.9h24.2c3.8,0,6.9,3.1,6.9,6.9
	C361.5,316.3,358.4,319.4,354.6,319.4z"/>
<path class="st0" d="M280.2,319.4H256c-3.8,0-6.9-3.1-6.9-6.9c0-3.8,3.1-6.9,6.9-6.9h24.2c3.8,0,6.9,3.1,6.9,6.9
	C287.1,316.3,284,319.4,280.2,319.4z"/>
<path class="st0" d="M429,373.6h-24.2c-3.8,0-6.9-3.1-6.9-6.9c0-3.8,3.1-6.9,6.9-6.9H429c3.8,0,6.9,3.1,6.9,6.9
	C435.9,370.5,432.8,373.6,429,373.6z"/>
<path class="st0" d="M354.6,373.6h-24.2c-3.8,0-6.9-3.1-6.9-6.9c0-3.8,3.1-6.9,6.9-6.9h24.2c3.8,0,6.9,3.1,6.9,6.9
	C361.5,370.5,358.4,373.6,354.6,373.6z"/>
<path class="st0" d="M280.2,373.6H256c-3.8,0-6.9-3.1-6.9-6.9c0-3.8,3.1-6.9,6.9-6.9h24.2c3.8,0,6.9,3.1,6.9,6.9
	C287.1,370.5,284,373.6,280.2,373.6z"/>
</svg>
