<svg version="1.1" class="svg-icon phone-transparent-icon" xmlns="http://www.w3.org/2000/svg" x="0px" y="0px"
	 viewBox="0 0 262 280" style="enable-background:new 0 0 262 280;">
<path class="st0" d="M236.2,169.3l-67.9-12c-3.4-0.6-6.9,1.1-8.5,4.2L143.3,193c-29.1-12.9-52.4-36.2-65.3-65.3l31.5-16.5
	c3.1-1.6,4.8-5,4.2-8.5l-12-67.9c-0.4-2.1-1.6-4-3.4-5.2C81.2,18,59,16.8,40.7,26.6C22.4,36.3,11,55.3,11,76
	c0.1,101.6,82.4,183.9,184,184c20.7,0,39.7-11.4,49.4-29.7s8.5-40.5-3.1-57.6C240.2,170.9,238.3,169.6,236.2,169.3z M195,244
	c-92.7-0.1-167.9-75.3-168-168c0-14.2,7.5-27.4,19.8-34.5c12.3-7.2,27.4-7.3,39.8-0.3L97,99.7l-32.8,17.1c-3.6,1.9-5.2,6.1-3.8,9.9
	c14.6,38.7,45.2,69.2,83.8,83.9c3.8,1.4,8.1-0.2,9.9-3.8l17.1-32.8l58.6,10.3c7,12.4,6.8,27.5-0.4,39.8
	C222.3,236.5,209.2,244,195,244z"/>
</svg>
