<svg version="1.1" class="svg-icon phone-icon" xmlns="http://www.w3.org/2000/svg" x="0px" y="0px" viewBox="0 0 459 459" style="enable-background:new 0 0 459 459;" xml:space="preserve">
    <path class="st0" d="M433.5,318.8c-30.6,0-61.2-5.1-91.8-15.3c-7.6-2.5-17.9,0-25.5,5.1l-56.1,56.1 c-71.4-35.7-130.1-96.9-168.3-168.3l56.1-56.1c7.6-7.6,10.2-17.8,5.1-25.5c-7.6-28.1-12.8-58.7-12.8-89.3 c0-15.3-10.2-25.5-25.5-25.5H25.5C10.2,0,0,10.2,0,25.5C0,265.2,193.8,459,433.5,459c15.3,0,25.5-10.2,25.5-25.5v-89.3 C459,329,448.8,318.8,433.5,318.8z"/>
</svg>
