<svg version="1.1" class="svg-icon pin-icon" xmlns="http://www.w3.org/2000/svg" x="0px"
	 y="0px" viewBox="0 0 512 512" style="enable-background:new 0 0 512 512;">
<path class="st0" d="M313.7,82.1H198.3c-41.5,0-75.2,33.8-75.2,75.2v115.5c0,41.5,33.8,75.2,75.2,75.2h13.4l44.3,81.8l44.3-81.8
	h13.4c41.5,0,75.2-33.8,75.2-75.2V157.4C389,115.9,355.2,82.1,313.7,82.1z M367.7,272.9c0,29.7-24.2,53.9-53.9,53.9h-26.1L256,385.1
	l-31.6-58.3h-26.1c-29.7,0-53.9-24.2-53.9-53.9V157.4c0-29.7,24.2-53.9,53.9-53.9h115.5c29.7,0,53.9,24.2,53.9,53.9L367.7,272.9
	L367.7,272.9z"/>
		<path class="st0" d="M256,127.3c-35.3,0-64,28.7-64,64c0,11.9,3.3,23.6,9.6,33.7l50.8,81.9c1,1.6,2.7,2.5,4.5,2.5l0,0
			c1.9,0,3.6-1,4.5-2.6l49.5-82.7c5.9-9.9,9-21.2,9-32.8C320,156,291.3,127.3,256,127.3z M301.8,218.6l-45,75.2l-46.2-74.4
			c-5.2-8.4-8-18.1-8-28c0-29.4,24-53.4,53.4-53.4s53.4,24,53.4,53.4C309.4,200.9,306.7,210.4,301.8,218.6z"/>
		<path class="st0" d="M256,159.3c-17.6,0-32,14.4-32,32c0,17.5,14.1,32,32,32c18.1,0,32-14.7,32-32
			C288,173.6,273.6,159.3,256,159.3z M256,212.7c-11.8,0-21.4-9.6-21.4-21.4c0-11.8,9.6-21.4,21.4-21.4s21.4,9.6,21.4,21.4
			C277.4,202.9,268,212.7,256,212.7z"/>
</svg>
